<svg width="14" height="9" viewBox="0 0 14 9" fill="none" xmlns="http://www.w3.org/2000/svg">
<path d="M1 9C0.787503 9 0.609503 8.928 0.466003 8.784C0.322503 8.64 0.250503 8.462 0.250003 8.25C0.249503 8.038 0.321503 7.86 0.466003 7.716C0.610503 7.572 0.788503 7.5 1 7.5H13C13.2125 7.5 13.3908 7.572 13.5348 7.716C13.6788 7.86 13.7505 8.038 13.75 8.25C13.7495 8.462 13.6775 8.64025 13.534 8.78475C13.3905 8.92925 13.2125 9.001 13 9H1ZM1 5.25C0.787503 5.25 0.609503 5.178 0.466003 5.034C0.322503 4.89 0.250503 4.712 0.250003 4.5C0.249503 4.288 0.321503 4.11 0.466003 3.966C0.610503 3.822 0.788503 3.75 1 3.75H13C13.2125 3.75 13.3908 3.822 13.5348 3.966C13.6788 4.11 13.7505 4.288 13.75 4.5C13.7495 4.712 13.6775 4.89025 13.534 5.03475C13.3905 5.17925 13.2125 5.251 13 5.25H1ZM1 1.5C0.787503 1.5 0.609503 1.428 0.466003 1.284C0.322503 1.14 0.250503 0.962 0.250003 0.75C0.249503 0.538 0.321503 0.36 0.466003 0.216C0.610503 0.0720001 0.788503 0 1 0H13C13.2125 0 13.3908 0.0720001 13.5348 0.216C13.6788 0.36 13.7505 0.538 13.75 0.75C13.7495 0.962 13.6775 1.14025 13.534 1.28475C13.3905 1.42925 13.2125 1.501 13 1.5H1Z" fill="white"/>
</svg>