<svg width="20" height="20" viewBox="0 0 20 20" fill="none" xmlns="http://www.w3.org/2000/svg">
<path d="M12.2381 9.59375L5.31995 8.375V17.3806C5.31986 17.4785 5.3391 17.5754 5.37656 17.6659C5.41402 17.7563 5.46896 17.8384 5.53823 17.9076C5.6075 17.9768 5.68974 18.0316 5.78023 18.0689C5.87072 18.1062 5.96769 18.1252 6.06557 18.125H18.0031C18.1011 18.1254 18.1982 18.1065 18.2888 18.0692C18.3794 18.032 18.4618 17.9772 18.5312 17.908C18.6006 17.8389 18.6557 17.7567 18.6932 17.6662C18.7308 17.5756 18.75 17.4786 18.7499 17.3806V14.0625L12.2381 9.59375Z" fill="#185C37"/>
<path d="M12.2381 1.875H6.06557C5.96769 1.87476 5.87072 1.89383 5.78023 1.93114C5.68974 1.96844 5.6075 2.02324 5.53823 2.0924C5.46896 2.16155 5.41402 2.2437 5.37656 2.33413C5.3391 2.42456 5.31986 2.5215 5.31995 2.61938V5.9375L12.2381 10L15.9012 11.2188L18.7499 10V5.9375L12.2381 1.875Z" fill="#21A366"/>
<path d="M5.31995 5.9375H12.2381V10H5.31995V5.9375Z" fill="#107C41"/>
<path opacity="0.1" d="M10.2712 5.125H5.31995V15.2812H10.2712C10.4685 15.2803 10.6574 15.2016 10.7971 15.0623C10.9368 14.9229 11.016 14.7342 11.0174 14.5369V5.86937C11.016 5.67209 10.9368 5.48333 10.7971 5.34399C10.6574 5.20466 10.4685 5.12598 10.2712 5.125Z" fill="black"/>
<path opacity="0.2" d="M9.86432 5.53125H5.31995V15.6875H9.86432C10.0616 15.6865 10.2506 15.6078 10.3903 15.4685C10.5299 15.3292 10.6091 15.1404 10.6106 14.9431V6.27562C10.6091 6.07834 10.5299 5.88958 10.3903 5.75024C10.2506 5.61091 10.0616 5.53223 9.86432 5.53125Z" fill="black"/>
<path opacity="0.2" d="M9.86432 5.53125H5.31995V14.875H9.86432C10.0616 14.874 10.2506 14.7953 10.3903 14.656C10.5299 14.5167 10.6091 14.3279 10.6106 14.1306V6.27562C10.6091 6.07834 10.5299 5.88958 10.3903 5.75024C10.2506 5.61091 10.0616 5.53223 9.86432 5.53125Z" fill="black"/>
<path opacity="0.2" d="M9.45745 5.53125H5.31995V14.875H9.45745C9.65474 14.874 9.8437 14.7953 9.98338 14.656C10.1231 14.5167 10.2022 14.3279 10.2037 14.1306V6.27562C10.2022 6.07834 10.1231 5.88958 9.98338 5.75024C9.8437 5.61091 9.65474 5.53223 9.45745 5.53125Z" fill="black"/>
<path d="M1.99625 5.53125H9.4575C9.65514 5.53109 9.84477 5.6094 9.9847 5.74898C10.1246 5.88856 10.2034 6.07799 10.2038 6.27563V13.7244C10.2034 13.922 10.1246 14.1114 9.9847 14.251C9.84477 14.3906 9.65514 14.4689 9.4575 14.4688H1.99625C1.89832 14.4691 1.80128 14.4501 1.71072 14.4128C1.62015 14.3755 1.53784 14.3207 1.4685 14.2516C1.39916 14.1824 1.34417 14.1002 1.30667 14.0098C1.26918 13.9193 1.24992 13.8223 1.25 13.7244V6.27563C1.24992 6.1777 1.26918 6.08071 1.30667 5.99024C1.34417 5.89977 1.39916 5.81759 1.4685 5.74843C1.53784 5.67927 1.62015 5.62448 1.71072 5.58721C1.80128 5.54994 1.89832 5.53092 1.99625 5.53125Z" fill="url(#paint0_linear_744_1407)"/>
<path d="M3.5625 12.4206L5.13188 9.99313L3.69437 7.57938H4.84875L5.63312 9.125C5.70562 9.27125 5.75813 9.38 5.78188 9.4525H5.7925C5.84375 9.33542 5.89792 9.22167 5.955 9.11125L6.79375 7.58188H7.85625L6.38188 9.98188L7.89375 12.4225H6.76313L5.85688 10.7281C5.81492 10.6552 5.77917 10.5789 5.75 10.5H5.735C5.70851 10.5769 5.67328 10.6505 5.63 10.7194L4.69688 12.4206H3.5625Z" fill="white"/>
<path d="M18.0038 1.875H12.2382V5.9375H18.75V2.61938C18.7501 2.52145 18.7309 2.42446 18.6934 2.33399C18.6559 2.24352 18.6009 2.16134 18.5315 2.09218C18.4622 2.02302 18.3799 1.96823 18.2893 1.93096C18.1988 1.89369 18.1017 1.87467 18.0038 1.875Z" fill="#33C481"/>
<path d="M12.2382 10H18.75V14.0625H12.2382V10Z" fill="#107C41"/>
<defs>
<linearGradient id="paint0_linear_744_1407" x1="2.80875" y1="4.94625" x2="8.645" y2="15.0538" gradientUnits="userSpaceOnUse">
<stop stop-color="#18884F"/>
<stop offset="0.5" stop-color="#117E43"/>
<stop offset="1" stop-color="#0B6631"/>
</linearGradient>
</defs>
</svg>
