<svg width="18" height="19" viewBox="0 0 18 19" fill="none" xmlns="http://www.w3.org/2000/svg">
<path fill-rule="evenodd" clip-rule="evenodd" d="M2.86714 2.246C2.96114 2.15733 3.08507 2.1073 3.21429 2.10586H12.2143C12.3467 2.10586 12.4714 2.15729 12.5614 2.246C12.6037 2.28745 12.6374 2.33684 12.6606 2.39133C12.6837 2.44583 12.6959 2.50436 12.6964 2.56357V3.80043C12.6964 4.01355 12.7811 4.21794 12.9318 4.36864C13.0825 4.51934 13.2869 4.604 13.5 4.604C13.7131 4.604 13.9175 4.51934 14.0682 4.36864C14.2189 4.21794 14.3036 4.01355 14.3036 3.80043V2.56357C14.3036 2.01071 14.0799 1.48357 13.6864 1.09786C13.2924 0.714234 12.7642 0.4997 12.2143 0.5H3.21429C2.66529 0.5 2.13429 0.714715 1.74214 1.09914C1.35 1.48357 1.125 2.012 1.125 2.56486V16.4377C1.125 16.9906 1.34871 17.5164 1.74214 17.9034C2.13557 18.2879 2.66529 18.5013 3.21429 18.5013H12.2143C12.7633 18.5013 13.2943 18.2879 13.6864 17.9021C14.0786 17.5164 14.3036 16.9893 14.3036 16.4364V15.2009C14.3036 14.9877 14.2189 14.7833 14.0682 14.6326C13.9175 14.4819 13.7131 14.3973 13.5 14.3973C13.2869 14.3973 13.0825 14.4819 12.9318 14.6326C12.7811 14.7833 12.6964 14.9877 12.6964 15.2009V16.4377C12.6964 16.5534 12.6489 16.6691 12.5601 16.7553C12.4663 16.8432 12.3429 16.8927 12.2143 16.8941H3.21429C3.08186 16.8941 2.95714 16.8427 2.86714 16.7553C2.82485 16.7138 2.79116 16.6644 2.76799 16.61C2.74483 16.5555 2.73264 16.4969 2.73214 16.4377V2.56357C2.73214 2.44786 2.77843 2.33214 2.86714 2.246ZM13.1927 6.18671C13.0467 6.24836 12.9219 6.35151 12.8339 6.48338C12.7459 6.61525 12.6986 6.77004 12.6977 6.92857V8.69643H7.07143C6.85831 8.69643 6.65392 8.78109 6.50322 8.93179C6.35252 9.08249 6.26786 9.28688 6.26786 9.5C6.26786 9.71312 6.35252 9.91751 6.50322 10.0682C6.65392 10.2189 6.85831 10.3036 7.07143 10.3036H12.6964V12.0714C12.6964 12.2304 12.7435 12.3858 12.8318 12.5179C12.9201 12.6501 13.0456 12.7531 13.1925 12.814C13.3393 12.8748 13.5009 12.8907 13.6568 12.8597C13.8127 12.8287 13.9559 12.7521 14.0683 12.6397L16.6397 10.0683C16.7144 9.99366 16.7736 9.90507 16.814 9.80756C16.8544 9.71006 16.8751 9.60555 16.8751 9.5C16.8751 9.39446 16.8544 9.28995 16.814 9.19244C16.7736 9.09493 16.7144 9.00634 16.6397 8.93172L14.0683 6.36029C13.9558 6.24804 13.8127 6.17164 13.6568 6.14075C13.501 6.10985 13.3395 6.12585 13.1927 6.18671Z" fill="white"/>
</svg>