<svg width="16" height="17" viewBox="0 0 20 21" fill="none" xmlns="http://www.w3.org/2000/svg">
<path d="M10 1.50005V7.50003M1.054 7.51303H18.947M14.76 1.50005C15.1327 1.49745 15.4988 1.59907 15.8168 1.79344C16.1349 1.9878 16.3923 2.26718 16.56 2.60005L18.79 7.07903C18.9279 7.3558 18.9998 7.66079 19 7.97003V17.5C19 18.0304 18.7893 18.5391 18.4142 18.9142C18.0391 19.2893 17.5304 19.5 17 19.5H3C2.46957 19.5 1.96086 19.2893 1.58579 18.9142C1.21071 18.5391 1 18.0304 1 17.5V7.97203C1.00002 7.6617 1.07226 7.35563 1.211 7.07803L3.45 2.60005C3.61696 2.2687 3.87281 1.99033 4.18893 1.79607C4.50504 1.60181 4.86897 1.49932 5.24 1.50005H14.76Z" stroke="white" stroke-width="2" stroke-linecap="round" stroke-linejoin="round"/>
</svg>