<svg width="14" height="17" viewBox="0 0 14 17" fill="none" xmlns="http://www.w3.org/2000/svg">
<path d="M2.99981 16.5759H11.0002C12.5597 16.5759 13.3357 15.7848 13.3357 14.2179V7.37754C13.3357 6.40554 13.2302 5.98382 12.6276 5.36604L8.46891 1.13989C7.89677 0.552001 7.42941 0.424072 6.57827 0.424072H2.99981C1.44795 0.424072 0.664307 1.2225 0.664307 2.78979V14.2179C0.664307 15.7922 1.44795 16.5759 2.99981 16.5759ZM3.05991 15.3631C2.28399 15.3631 1.87706 14.9485 1.87706 14.1954V2.81229C1.87706 2.06657 2.28399 1.63682 3.06763 1.63682H6.41241V6.01404C6.41241 6.96322 6.89456 7.43025 7.82863 7.43025H12.1229V14.1954C12.1229 14.9485 11.7234 15.3631 10.9401 15.3631H3.05991ZM7.96427 6.29239C7.67049 6.29239 7.54963 6.17218 7.54963 5.87068V1.8705L11.8889 6.29272L7.96427 6.29239ZM9.77231 9.50186H4.05409C3.78313 9.50186 3.58738 9.70532 3.58738 9.9615C3.58738 10.2251 3.78345 10.4285 4.05441 10.4285H9.77231C9.83391 10.4295 9.89509 10.4181 9.95221 10.395C10.0093 10.3719 10.0612 10.3375 10.1048 10.294C10.1483 10.2504 10.1827 10.1985 10.2058 10.1414C10.2289 10.0843 10.2403 10.0231 10.2393 9.9615C10.2393 9.70532 10.0359 9.50186 9.77231 9.50186ZM9.77231 12.1311H4.05409C3.78313 12.1311 3.58738 12.342 3.58738 12.6056C3.58738 12.8618 3.78345 13.0578 4.05441 13.0578H9.77231C10.0359 13.0578 10.2393 12.8618 10.2393 12.6056C10.2393 12.342 10.0359 12.1311 9.77231 12.1311Z" fill="black"/>
</svg>