<svg width="16" height="13" viewBox="0 0 16 13" fill="none" xmlns="http://www.w3.org/2000/svg">
<path d="M11.75 12.1251C11.75 10.8823 10.0707 9.87505 8 9.87505C5.92925 9.87505 4.25 10.8823 4.25 12.1251M14.75 9.87505C14.75 8.95255 13.8245 8.1598 12.5 7.81255M1.25 9.87505C1.25 8.95255 2.1755 8.1598 3.5 7.81255M12.5 4.80205C12.7222 4.60562 12.9034 4.3672 13.0331 4.1005C13.1628 3.8338 13.2385 3.54409 13.2559 3.24802C13.2732 2.95195 13.2319 2.65538 13.1342 2.37535C13.0366 2.09532 12.8845 1.83736 12.6868 1.61631C12.4891 1.39526 12.2496 1.21548 11.9821 1.0873C11.7147 0.959133 11.4245 0.8851 11.1284 0.869463C10.8322 0.853826 10.5359 0.896894 10.2564 0.99619C9.97697 1.09549 9.7199 1.24905 9.5 1.44805M3.5 4.80205C3.05922 4.40316 2.79422 3.84605 2.76288 3.2524C2.73153 2.65876 2.9364 2.07683 3.33272 1.63374C3.72904 1.19066 4.28461 0.922419 4.87806 0.887626C5.47151 0.852833 6.05462 1.05431 6.5 1.44805M8 7.62505C7.40326 7.62505 6.83097 7.388 6.40901 6.96604C5.98705 6.54408 5.75 5.97179 5.75 5.37505C5.75 4.77831 5.98705 4.20602 6.40901 3.78406C6.83097 3.3621 7.40326 3.12505 8 3.12505C8.59674 3.12505 9.16903 3.3621 9.59099 3.78406C10.0129 4.20602 10.25 4.77831 10.25 5.37505C10.25 5.97179 10.0129 6.54408 9.59099 6.96604C9.16903 7.388 8.59674 7.62505 8 7.62505Z" stroke="black" stroke-width="1.5" stroke-linecap="round" stroke-linejoin="round"/>
</svg>