<svg width="20" height="20" viewBox="0 0 20 20" fill="none" xmlns="http://www.w3.org/2000/svg">
<path d="M9.85416 5.37918L9.84666 5.37418L9.18583 4.93001C8.73222 4.62492 8.19111 4.47692 7.64536 4.50868C7.09962 4.54044 6.57933 4.7502 6.16416 5.10585L4.54166 6.49668C4.42834 6.59359 4.28411 6.64679 4.135 6.64668H2.29166C2.1259 6.64668 1.96693 6.71253 1.84972 6.82974C1.73251 6.94695 1.66666 7.10592 1.66666 7.27168V12.2967C1.66666 12.6417 1.94666 12.9217 2.29166 12.9217H4.03166C4.12041 12.9216 4.20815 12.9405 4.28905 12.977C4.36994 13.0135 4.44214 13.0668 4.50083 13.1333L6.45 15.35C6.75343 15.6949 7.17291 15.9164 7.62882 15.9724C8.08474 16.0285 8.54538 15.9153 8.92333 15.6542L9.49333 15.26L10.105 15.4683C10.483 15.5965 10.892 15.6007 11.2725 15.4804C11.6531 15.36 11.9853 15.1214 12.2208 14.7992L12.6125 14.2642L12.8842 14.3008C13.2604 14.3515 13.6432 14.2868 13.9819 14.1153C14.3205 13.9437 14.5991 13.6734 14.7808 13.34L14.8217 13.265H17.7083C17.8741 13.265 18.0331 13.1992 18.1503 13.082C18.2675 12.9647 18.3333 12.8058 18.3333 12.64V7.27251C18.3333 7.10675 18.2675 6.94778 18.1503 6.83057C18.0331 6.71336 17.8741 6.64751 17.7083 6.64751H15.8658C15.7159 6.64756 15.571 6.59373 15.4575 6.49585L14.05 5.28001C13.4629 4.77271 12.7081 4.50195 11.9324 4.52044C11.1567 4.53892 10.4156 4.84532 9.85333 5.38001M8.48666 5.96751L8.955 6.28251L7.32166 7.92501C7.14564 8.10204 7.00673 8.31244 6.9131 8.54387C6.81947 8.7753 6.773 9.0231 6.77642 9.27272C6.77983 9.52235 6.83307 9.76878 6.93299 9.99756C7.03292 10.2263 7.17752 10.4329 7.35833 10.605L7.415 10.6583C8.09 11.3008 9.13333 11.3508 9.86583 10.775L11.5983 9.41501L13.8125 11.5442C13.9114 11.6392 13.9763 11.7641 13.9973 11.8996C14.0182 12.0351 13.994 12.1738 13.9283 12.2942L13.9075 12.3308L13.8958 12.3525L13.6833 12.7417C13.6228 12.8526 13.53 12.9426 13.4172 12.9998C13.3044 13.0569 13.177 13.0785 13.0517 13.0617L12.4108 12.9758C12.2995 12.9609 12.1861 12.9762 12.0827 13.0202C11.9794 13.0642 11.8897 13.1352 11.8233 13.2258L11.2117 14.0608C11.1332 14.1682 11.0225 14.2478 10.8957 14.288C10.7689 14.3281 10.6326 14.3268 10.5067 14.2842L9.59833 13.9758C9.50594 13.9444 9.40746 13.935 9.31079 13.9485C9.21413 13.962 9.12196 13.9979 9.04166 14.0533L8.21333 14.6258C8.08727 14.713 7.93358 14.7508 7.78148 14.732C7.62938 14.7133 7.48946 14.6393 7.38833 14.5242L5.43916 12.3075C5.26307 12.1076 5.04639 11.9474 4.80354 11.8378C4.5607 11.7281 4.29728 11.6715 4.03083 11.6717H2.91666V7.89668H4.13416C4.5816 7.89678 5.01431 7.73688 5.35416 7.44585L6.9775 6.05501C7.18503 5.87713 7.44515 5.77217 7.71803 5.75622C7.9909 5.74026 8.26148 5.81419 8.48833 5.96668M15.255 12.0158C15.258 11.7598 15.2085 11.5059 15.1097 11.2697C15.0108 11.0335 14.8645 10.82 14.68 10.6425L12.5792 8.62251C12.6735 8.50231 12.7204 8.35172 12.7113 8.19922C12.7021 8.04672 12.6374 7.90287 12.5293 7.79484C12.4213 7.68681 12.2775 7.62209 12.125 7.61291C11.9725 7.60373 11.8219 7.65072 11.7017 7.74501L11.28 8.07585L11.23 8.11501L9.095 9.79251C8.9768 9.88539 8.82909 9.93255 8.67894 9.92535C8.5288 9.91816 8.38627 9.85709 8.2775 9.75335L8.22083 9.69918C8.16054 9.64182 8.11232 9.57299 8.07899 9.49674C8.04565 9.42049 8.02788 9.33835 8.02672 9.25514C8.02556 9.17193 8.04102 9.08933 8.07221 9.01218C8.10339 8.93502 8.14967 8.86488 8.20833 8.80585L10.6792 6.32251C11.0138 5.98611 11.4635 5.78908 11.9376 5.77114C12.4118 5.7532 12.8751 5.91569 13.2342 6.22585L14.64 7.44085C14.9809 7.73518 15.4163 7.89699 15.8667 7.89668H17.0833V12.0158H15.255Z" fill="white"/>
</svg>