<svg width="50" height="50" viewBox="0 0 50 50" fill="none" xmlns="http://www.w3.org/2000/svg">
<path d="M31.2501 6.25C32.3551 6.25 33.415 6.68899 34.1964 7.47039C34.9778 8.25179 35.4167 9.3116 35.4167 10.4167V18.75H39.5834C40.6885 18.75 41.7483 19.189 42.5297 19.9704C43.3111 20.7518 43.7501 21.8116 43.7501 22.9167V39.5833C44.3026 39.5833 44.8325 39.8028 45.2232 40.1935C45.6139 40.5842 45.8334 41.1141 45.8334 41.6667C45.8334 42.2192 45.6139 42.7491 45.2232 43.1398C44.8325 43.5305 44.3026 43.75 43.7501 43.75H6.25008C5.69755 43.75 5.16764 43.5305 4.77694 43.1398C4.38624 42.7491 4.16675 42.2192 4.16675 41.6667C4.16675 41.1141 4.38624 40.5842 4.77694 40.1935C5.16764 39.8028 5.69755 39.5833 6.25008 39.5833V18.75C6.25008 17.6449 6.68907 16.5851 7.47047 15.8037C8.25187 15.0223 9.31168 14.5833 10.4167 14.5833H14.5834V10.4167C14.5834 9.3116 15.0224 8.25179 15.8038 7.47039C16.5852 6.68899 17.645 6.25 18.7501 6.25H31.2501ZM14.5834 18.75H10.4167V39.5833H14.5834V18.75ZM39.5834 22.9167H35.4167V39.5833H39.5834V22.9167ZM31.2501 10.4167H18.7501V39.5833H31.2501V10.4167ZM27.0834 31.25V35.4167H22.9167V31.25H27.0834ZM27.0834 22.9167V27.0833H22.9167V22.9167H27.0834ZM27.0834 14.5833V18.75H22.9167V14.5833H27.0834Z" fill="black"/>
</svg>