<svg width="626" height="607" viewBox="0 0 626 607" fill="none" xmlns="http://www.w3.org/2000/svg">
<path d="M312.958 607C485.8 607 625.916 526.104 625.916 426.313C625.916 326.522 485.8 245.626 312.958 245.626C140.116 245.626 0 326.522 0 426.313C0 526.104 140.116 607 312.958 607Z" fill="#F0F0F0"/>
<path d="M492.688 489.008C472.166 477.16 472.166 457.953 492.688 446.105C513.21 434.256 546.484 434.256 567.006 446.105C587.528 457.953 587.528 477.16 567.006 489.008C546.484 500.856 513.21 500.856 492.688 489.008Z" fill="#E0E0E0"/>
<path d="M75.2874 490.655L21.3057 459.494C18.264 457.74 18.264 454.884 21.3057 453.131L335.3 271.846C337.006 270.982 338.892 270.531 340.805 270.531C342.718 270.531 344.605 270.982 346.311 271.846L400.306 303.008C403.348 304.761 403.348 307.617 400.306 309.371L86.3121 490.655C84.6033 491.52 82.715 491.971 80.7997 491.971C78.8845 491.971 76.9962 491.52 75.2874 490.655Z" fill="#E0E0E0"/>
<path d="M269.324 435.106L315.734 408.275C320.516 405.512 322.907 401.899 322.907 398.273C322.907 394.647 322.907 391.817 322.907 391.817L274.77 364.667C273.425 363.798 272.305 362.622 271.502 361.237C270.698 359.852 270.234 358.296 270.147 356.697V299.462L189.122 346.297V403.506C189.215 405.104 189.682 406.657 190.485 408.041C191.287 409.425 192.404 410.602 193.744 411.476L234.708 435.066C244.245 440.632 259.76 440.632 269.324 435.106Z" fill="#407BFF"/>
<g opacity="0.6">
<path d="M269.324 435.106L315.734 408.275C320.516 405.512 322.907 401.899 322.907 398.273C322.907 394.647 322.907 391.817 322.907 391.817L274.77 364.667C273.425 363.798 272.305 362.622 271.502 361.237C270.698 359.852 270.234 358.296 270.147 356.697V299.462L189.122 346.297V403.506C189.215 405.104 189.682 406.657 190.485 408.041C191.287 409.425 192.404 410.602 193.744 411.476L234.708 435.066C244.245 440.632 259.76 440.632 269.324 435.106Z" fill="black"/>
</g>
<path opacity="0.3" d="M208.554 413.641V420.07L193.704 411.503C192.364 410.629 191.249 409.453 190.448 408.068C189.647 406.684 189.184 405.13 189.095 403.533V346.297L204.53 337.384C204.848 341.303 205.194 345.354 205.526 349.339L194.674 355.582V400.279C194.76 401.878 195.224 403.434 196.027 404.819C196.831 406.204 197.951 407.38 199.296 408.248L208.554 413.641Z" fill="black"/>
<path d="M194.674 400.292C194.765 401.89 195.231 403.444 196.034 404.828C196.837 406.213 197.955 407.389 199.296 408.262L234.655 428.638C244.219 434.15 259.733 434.163 269.31 428.638L315.8 401.806C325.377 396.28 325.377 387.328 315.8 381.802L280.415 361.426C279.076 360.551 277.962 359.374 277.161 357.99C276.361 356.606 275.896 355.053 275.806 353.457V308.746L194.78 355.582L194.674 400.292Z" fill="#407BFF"/>
<path opacity="0.3" d="M194.674 400.292C194.765 401.89 195.231 403.444 196.034 404.828C196.837 406.213 197.955 407.389 199.296 408.262L234.655 428.638C244.219 434.15 259.733 434.163 269.31 428.638L315.8 401.806C325.377 396.28 325.377 387.328 315.8 381.802L280.415 361.426C279.076 360.551 277.962 359.374 277.161 357.99C276.361 356.606 275.896 355.053 275.806 353.457V308.746L194.78 355.582L194.674 400.292Z" fill="black"/>
<path opacity="0.5" d="M289.779 366.885L280.362 361.453C279.023 360.578 277.909 359.401 277.108 358.017C276.308 356.632 275.843 355.08 275.752 353.483V308.746L194.727 355.582V400.292C194.818 401.89 195.284 403.444 196.087 404.828C196.89 406.213 198.008 407.389 199.349 408.262L208.647 413.575L289.779 366.885Z" fill="black"/>
<path d="M322.92 391.831V398.286C322.92 401.912 320.516 405.512 315.747 408.288L269.257 435.106C264.169 437.822 258.487 439.232 252.72 439.211V432.782C258.487 432.803 264.169 431.393 269.257 428.677L315.747 401.833C320.516 399.083 322.92 395.457 322.92 391.831Z" fill="#407BFF"/>
<path opacity="0.5" d="M322.92 391.831V398.286C322.92 401.912 320.516 405.512 315.747 408.288L269.257 435.106C264.169 437.822 258.487 439.232 252.72 439.211V432.782C258.487 432.803 264.169 431.393 269.257 428.677L315.747 401.833C320.516 399.083 322.92 395.457 322.92 391.831Z" fill="black"/>
<path d="M64.5016 455.854C66.2533 456.7 68.1791 457.123 70.1241 457.088C72.069 457.054 73.9787 456.563 75.6991 455.655L389.175 274.676C390.856 273.579 392.255 272.103 393.259 270.365C394.263 268.627 394.843 266.678 394.953 264.674V11.0771C394.893 9.12764 394.373 7.21997 393.436 5.50953C392.499 3.79909 391.171 2.33427 389.56 1.23446C387.811 0.387485 385.886 -0.0346987 383.943 0.00223001C381.999 0.0391588 380.092 0.534157 378.376 1.44699L64.9001 182.479C63.2251 183.582 61.8346 185.066 60.842 186.809C59.8494 188.552 59.2828 190.504 59.1885 192.508V446.065C59.2477 447.998 59.7592 449.891 60.6819 451.591C61.6046 453.291 62.9128 454.751 64.5016 455.854Z" fill="#407BFF"/>
<path d="M75.7389 455.642L389.215 274.662C390.898 273.568 392.299 272.092 393.303 270.354C394.307 268.616 394.886 266.665 394.993 264.66V11.077C394.993 7.39769 392.403 5.89673 389.215 7.74305L75.7389 188.722C74.0573 189.818 72.6578 191.294 71.6538 193.032C70.6499 194.77 70.0699 196.72 69.9609 198.724V452.308C69.9609 455.987 72.551 457.488 75.7389 455.642Z" fill="#407BFF"/>
<path opacity="0.5" d="M75.7389 455.642L389.215 274.662C390.898 273.568 392.299 272.092 393.303 270.354C394.307 268.616 394.886 266.665 394.993 264.66V11.077C394.993 7.39769 392.403 5.89673 389.215 7.74305L75.7389 188.722C74.0573 189.818 72.6578 191.294 71.6538 193.032C70.6499 194.77 70.0699 196.72 69.9609 198.724V452.308C69.9609 455.987 72.551 457.488 75.7389 455.642Z" fill="black"/>
<path d="M74.8888 462.23C73.245 462.947 71.4651 463.3 69.6719 463.263C67.8787 463.227 66.1147 462.802 64.5016 462.017C62.9092 460.912 61.5988 459.447 60.676 457.742C59.7531 456.037 59.2436 454.139 59.1885 452.201V429.116L70.014 435.385V458.471C69.9476 461.831 72.0861 463.359 74.8888 462.23Z" fill="#407BFF"/>
<path opacity="0.5" d="M74.8888 462.23C73.245 462.947 71.4651 463.3 69.6719 463.263C67.8787 463.227 66.1147 462.802 64.5016 462.017C62.9092 460.912 61.5988 459.447 60.676 457.742C59.7531 456.037 59.2436 454.139 59.1885 452.201V429.116L70.014 435.385V458.471C69.9476 461.831 72.0861 463.359 74.8888 462.23Z" fill="black"/>
<path d="M69.9476 435.385V458.471C69.9476 462.15 72.6042 463.638 75.7257 461.805L389.202 280.826C390.875 279.735 392.27 278.266 393.274 276.538C394.277 274.811 394.861 272.871 394.98 270.877V247.685L69.9476 435.385Z" fill="#407BFF"/>
<path opacity="0.3" d="M69.9609 435.332V458.471C69.9609 462.15 72.6174 463.638 75.7389 461.805L389.215 280.826C390.886 279.733 392.278 278.264 393.279 276.536C394.281 274.809 394.863 272.87 394.98 270.877V247.685L69.9609 435.332Z" fill="black"/>
<path d="M80.7864 406.362V202.324C80.8483 201.122 81.1933 199.951 81.7935 198.908C82.3937 197.865 83.232 196.978 84.24 196.32L380.634 25.1436C382.547 24.0412 384.101 24.9311 384.101 27.1361V231.281C384.036 232.484 383.689 233.654 383.087 234.698C382.484 235.741 381.644 236.627 380.634 237.284L84.2533 408.421C82.3405 409.523 80.7864 408.62 80.7864 406.362Z" fill="#407BFF"/>
<path d="M80.7864 406.362V202.324C80.8483 201.122 81.1933 199.951 81.7935 198.908C82.3937 197.865 83.232 196.978 84.24 196.32L380.634 25.1436C382.547 24.0412 384.101 24.9311 384.101 27.1361V231.281C384.036 232.484 383.689 233.654 383.087 234.698C382.484 235.741 381.644 236.627 380.634 237.284L84.2533 408.421C82.3405 409.523 80.7864 408.62 80.7864 406.362Z" fill="#263238"/>
<path d="M232.464 348.887C230.886 349.913 229.573 351.297 228.631 352.927C227.689 354.557 227.146 356.385 227.044 358.265C227.044 361.718 229.475 363.126 232.464 361.4C234.043 360.372 235.357 358.986 236.299 357.354C237.241 355.722 237.784 353.89 237.883 352.009C237.883 348.555 235.452 347.16 232.464 348.887Z" fill="#407BFF"/>
<path opacity="0.7" d="M71.6611 193.013C70.6317 194.743 70.0432 196.7 69.9476 198.711V435.385L59.1885 429.116V192.508C59.2582 190.49 59.8435 188.524 60.8887 186.796L71.6611 193.013Z" fill="black"/>
<path opacity="0.3" d="M394.926 10.1207C394.515 7.14533 392.111 6.13583 389.202 7.74306L75.7257 188.722C74.0261 189.785 72.6232 191.261 71.6478 193.013L60.809 186.756C61.7909 185.005 63.1978 183.53 64.9001 182.466L378.376 1.50011C380.094 0.587155 382.004 0.0921335 383.949 0.055208C385.895 0.0182825 387.822 0.440493 389.573 1.28758C391.046 2.29092 392.286 3.59875 393.209 5.12265C394.133 6.64654 394.719 8.35098 394.926 10.1207Z" fill="black"/>
<path d="M411.836 41.3354C411.37 41.1017 410.849 40.9993 410.33 41.0391C409.81 41.0789 409.311 41.2594 408.887 41.5612L113.104 212.432C111.937 213.204 110.968 214.24 110.275 215.456C109.583 216.672 109.187 218.034 109.119 219.432V422.222C109.077 422.906 109.213 423.59 109.513 424.207C109.814 424.823 110.268 425.352 110.832 425.742C111.483 426.1 114.963 428.119 115.999 428.677C116.366 428.864 116.775 428.95 117.186 428.927C117.597 428.903 117.994 428.772 118.337 428.544L414.054 257.674C415.221 256.902 416.19 255.865 416.882 254.649C417.574 253.433 417.971 252.071 418.039 250.673V46.8345C418.098 46.3194 418.013 45.798 417.792 45.3287C417.572 44.8594 417.225 44.4609 416.79 44.1779C416.126 43.7396 412.579 41.7737 411.836 41.3354Z" fill="#407BFF"/>
<path d="M118.271 215.301L414.067 44.4967C416.299 43.1684 418.052 44.2576 418.052 46.8345V250.673C417.984 252.071 417.588 253.433 416.895 254.649C416.203 255.865 415.234 256.902 414.067 257.674L118.271 428.544C116.039 429.873 114.286 427.734 114.286 425.157V222.301C114.356 220.904 114.753 219.543 115.445 218.327C116.137 217.111 117.105 216.075 118.271 215.301Z" fill="#FAFAFA"/>
<path d="M415.874 45.2672C416.657 45.2672 416.777 46.2501 416.777 46.8346V250.674C416.705 251.844 416.362 252.982 415.774 253.996C415.186 255.011 414.37 255.874 413.39 256.518L117.633 427.389C117.435 427.518 117.205 427.591 116.969 427.602C116.225 427.602 115.641 426.459 115.641 425.157V222.301C115.705 221.131 116.038 219.992 116.614 218.971C117.19 217.951 117.993 217.077 118.961 216.417L414.731 45.6391C415.073 45.4183 415.467 45.2901 415.874 45.2672ZM415.874 43.9389C415.233 43.9662 414.611 44.1583 414.067 44.4968L118.271 215.301C117.105 216.075 116.137 217.111 115.445 218.327C114.753 219.543 114.356 220.904 114.286 222.301V425.157C114.286 427.203 115.428 428.93 116.942 428.93C117.411 428.921 117.87 428.788 118.271 428.545L414.054 257.674C415.221 256.902 416.19 255.866 416.882 254.649C417.574 253.433 417.971 252.071 418.039 250.674V46.8346C418.039 45.0015 417.135 43.9389 415.807 43.9389H415.874Z" fill="#E0E0E0"/>
<path d="M110.753 425.742C111.191 425.968 114.339 427.761 115.72 428.558C115.224 428.146 114.831 427.625 114.573 427.034C114.315 426.444 114.198 425.801 114.233 425.157V235.544L109.052 232.516V422.222C109.009 422.905 109.143 423.588 109.441 424.205C109.739 424.821 110.191 425.351 110.753 425.742Z" fill="#F0F0F0"/>
<path d="M418.105 46.7947C418.105 44.2444 416.285 43.2083 414.12 44.4968L118.271 215.301C117.105 216.075 116.137 217.111 115.445 218.327C114.753 219.543 114.356 220.904 114.286 222.301V235.584L418.105 60.0776V46.7947Z" fill="#407BFF"/>
<g opacity="0.4">
<path d="M414.067 44.4968L118.271 215.288C117.084 216.037 116.106 217.074 115.428 218.303L110.288 215.315C110.964 214.128 111.934 213.136 113.104 212.432L408.887 41.5613C409.31 41.2573 409.808 41.0745 410.328 41.0323C410.847 40.9902 411.369 41.0904 411.836 41.3222C412.553 41.7738 415.913 43.6732 416.777 44.1381C416.33 43.9725 415.85 43.9186 415.377 43.9811C414.905 44.0436 414.455 44.2207 414.067 44.4968Z" fill="white"/>
</g>
<path opacity="0.15" d="M109.052 232.529V219.366C109.107 217.931 109.533 216.535 110.288 215.315L115.441 218.29C114.697 219.49 114.28 220.864 114.233 222.275V235.558L109.052 232.529Z" fill="black"/>
<path d="M355.729 199.707L178.575 301.985C177.713 302.544 176.996 303.299 176.481 304.187C175.967 305.076 175.669 306.074 175.613 307.099V357.893C175.669 358.918 175.967 359.916 176.481 360.805C176.996 361.693 177.713 362.448 178.575 363.007L183.742 365.982C184.66 366.447 185.675 366.689 186.704 366.689C187.733 366.689 188.748 366.447 189.666 365.982L366.793 263.704C367.655 263.142 368.372 262.385 368.887 261.494C369.402 260.604 369.699 259.604 369.755 258.577V207.77C369.699 206.744 369.402 205.747 368.887 204.858C368.372 203.969 367.655 203.215 366.793 202.656L361.613 199.681C360.699 199.224 359.69 198.988 358.668 198.992C357.646 198.997 356.639 199.242 355.729 199.707Z" fill="#407BFF"/>
<path opacity="0.5" d="M369.755 207.318C369.543 205.791 368.307 205.233 366.82 206.096L189.666 308.374C188.792 308.917 188.074 309.677 187.581 310.579L176.49 304.177C176.987 303.289 177.699 302.539 178.562 301.999L355.729 199.72C356.644 199.255 357.657 199.012 358.684 199.012C359.711 199.012 360.724 199.255 361.639 199.72L366.82 202.696C367.61 203.213 368.28 203.893 368.786 204.69C369.292 205.487 369.623 206.383 369.755 207.318Z" fill="white"/>
<path d="M189.161 366.235C188.294 366.576 187.364 366.732 186.433 366.691C185.501 366.649 184.589 366.413 183.755 365.995L178.575 363.02C177.715 362.46 176.999 361.705 176.484 360.816C175.97 359.928 175.671 358.931 175.613 357.906V307.113C175.653 306.076 175.954 305.066 176.49 304.177L187.581 310.579C187.042 311.457 186.74 312.459 186.704 313.488V364.295C186.704 365.982 187.767 366.766 189.161 366.235Z" fill="#263238"/>
<path d="M189.666 308.374L366.82 206.096C368.454 205.153 369.782 205.91 369.782 207.796V258.603C369.726 259.631 369.428 260.63 368.914 261.521C368.399 262.412 367.682 263.169 366.82 263.731L189.693 366.009C188.059 366.952 186.731 366.181 186.731 364.295V313.501C186.784 312.477 187.077 311.479 187.587 310.588C188.097 309.697 188.809 308.939 189.666 308.374Z" fill="#407BFF"/>
<path d="M308.76 226.831L178.588 301.999C177.726 302.539 177.013 303.289 176.516 304.177L187.607 310.579C188.101 309.677 188.819 308.917 189.693 308.374L319.865 233.22L308.76 226.831Z" fill="#455A64"/>
<path d="M319.838 233.22L189.666 308.374C188.804 308.936 188.087 309.693 187.573 310.584C187.058 311.475 186.76 312.474 186.704 313.502V364.282C186.704 366.168 188.032 366.939 189.666 365.995L319.838 290.841V233.22Z" fill="#37474F"/>
<path d="M219.685 302.185L286.857 263.412C289.633 261.805 291.891 262.947 291.891 265.962C291.767 267.656 291.245 269.296 290.368 270.75C289.491 272.204 288.284 273.431 286.844 274.33L219.685 313.116C216.909 314.724 214.638 313.581 214.638 310.566C214.763 308.871 215.285 307.229 216.162 305.773C217.039 304.317 218.246 303.088 219.685 302.185Z" fill="#407BFF"/>
<path d="M233.447 315.029C233.459 315.015 233.474 315.004 233.492 314.996C233.509 314.988 233.527 314.984 233.546 314.984C233.565 314.984 233.584 314.988 233.601 314.996C233.618 315.004 233.633 315.015 233.646 315.029C233.705 315.119 233.733 315.227 233.725 315.335V322.893C233.726 323.623 233.664 324.352 233.54 325.071C233.43 325.728 233.243 326.37 232.982 326.984C232.744 327.546 232.431 328.073 232.052 328.551C231.678 328.995 231.228 329.368 230.724 329.654C230.328 329.911 229.867 330.049 229.395 330.052C229.215 330.038 229.04 329.987 228.88 329.902C228.72 329.818 228.579 329.701 228.465 329.561C228.174 329.17 227.982 328.714 227.908 328.232C227.78 327.589 227.723 326.935 227.735 326.28V318.708C227.734 318.576 227.762 318.445 227.815 318.323C227.847 318.214 227.918 318.119 228.014 318.058L228.851 317.566C228.878 317.541 228.913 317.527 228.95 317.527C228.987 317.527 229.023 317.541 229.05 317.566C229.111 317.656 229.139 317.764 229.13 317.872V325.337C229.119 325.747 229.16 326.158 229.249 326.559C229.286 326.815 229.397 327.055 229.568 327.249C229.628 327.321 229.703 327.377 229.789 327.414C229.874 327.451 229.967 327.467 230.059 327.462C230.287 327.447 230.506 327.374 230.697 327.249C230.933 327.108 231.148 326.934 231.335 326.731C231.542 326.492 231.712 326.224 231.839 325.934C231.989 325.594 232.101 325.237 232.171 324.872C232.249 324.433 232.284 323.989 232.278 323.543V316.065C232.282 315.932 232.313 315.801 232.371 315.68C232.403 315.57 232.474 315.476 232.57 315.414L233.447 315.029Z" fill="#FAFAFA"/>
<path d="M238.653 322.175C238.66 322.078 238.637 321.98 238.587 321.896C238.555 321.862 238.516 321.835 238.472 321.819C238.428 321.803 238.381 321.798 238.335 321.803C238.172 321.781 238.006 321.781 237.843 321.803L237.073 321.95C236.824 322.011 236.564 322.011 236.316 321.95C236.121 321.887 235.952 321.76 235.837 321.591C235.708 321.375 235.622 321.136 235.585 320.887C235.455 320.175 235.455 319.446 235.585 318.735C235.685 318.327 235.827 317.931 236.01 317.553C236.192 317.176 236.415 316.819 236.674 316.49C236.926 316.177 237.232 315.911 237.578 315.707C237.857 315.536 238.169 315.428 238.494 315.388C238.73 315.363 238.967 315.415 239.171 315.534C239.366 315.653 239.519 315.829 239.61 316.039C239.717 316.286 239.776 316.552 239.782 316.822C239.796 316.956 239.768 317.09 239.703 317.208C239.67 317.317 239.6 317.411 239.504 317.473L238.707 317.938C238.67 317.959 238.629 317.97 238.587 317.97C238.545 317.97 238.504 317.959 238.467 317.938L238.295 317.805C238.226 317.751 238.143 317.719 238.056 317.712C237.885 317.731 237.721 317.791 237.578 317.885C237.369 318.011 237.185 318.173 237.033 318.363C236.872 318.572 236.788 318.83 236.794 319.094C236.775 319.195 236.775 319.298 236.794 319.399C236.819 319.437 236.853 319.468 236.892 319.491C236.931 319.514 236.974 319.528 237.02 319.532C237.165 319.556 237.313 319.556 237.458 319.532L238.202 319.399C238.826 319.28 239.251 319.399 239.53 319.745C239.823 320.237 239.958 320.807 239.915 321.378C239.912 321.773 239.858 322.166 239.756 322.547C239.651 322.961 239.499 323.362 239.304 323.743C239.109 324.136 238.864 324.502 238.574 324.832C238.299 325.155 237.971 325.429 237.604 325.642C237.312 325.829 236.98 325.943 236.634 325.974C236.385 325.983 236.138 325.913 235.93 325.775C235.725 325.635 235.568 325.436 235.479 325.204C235.371 324.952 235.317 324.681 235.319 324.407C235.307 324.269 235.335 324.131 235.399 324.008C235.432 323.899 235.502 323.805 235.598 323.743L236.395 323.278C236.502 323.278 236.581 323.211 236.634 323.278L236.807 323.464C236.842 323.503 236.885 323.536 236.933 323.558C236.981 323.581 237.033 323.594 237.086 323.597C237.273 323.598 237.455 323.537 237.604 323.424C237.844 323.288 238.059 323.113 238.242 322.906C238.332 322.797 238.408 322.676 238.467 322.547C238.561 322.442 238.625 322.314 238.653 322.175Z" fill="#FAFAFA"/>
<path d="M241.363 318.576C241.361 317.886 241.418 317.197 241.536 316.517C241.647 315.877 241.82 315.25 242.054 314.644C242.249 314.101 242.517 313.587 242.851 313.116C243.129 312.712 243.492 312.372 243.913 312.12C244.221 311.913 244.597 311.832 244.963 311.894C245.287 311.97 245.572 312.164 245.76 312.439C246.01 312.799 246.186 313.206 246.278 313.634C246.405 314.192 246.468 314.763 246.464 315.335V316.158C246.468 316.297 246.436 316.434 246.371 316.557C246.338 316.666 246.268 316.76 246.171 316.822L242.718 318.828C242.71 319.062 242.741 319.295 242.811 319.519C242.862 319.669 242.954 319.802 243.077 319.904C243.186 319.99 243.323 320.033 243.462 320.023C243.622 320.005 243.777 319.95 243.913 319.864C244.114 319.755 244.294 319.611 244.445 319.439C244.581 319.286 244.697 319.116 244.79 318.934C244.847 318.829 244.909 318.727 244.976 318.629C245.033 318.561 245.1 318.503 245.175 318.456L245.999 317.978C246.027 317.955 246.062 317.943 246.098 317.943C246.135 317.943 246.17 317.955 246.198 317.978C246.233 318.02 246.258 318.069 246.272 318.122C246.286 318.175 246.288 318.23 246.278 318.283C246.263 318.542 246.209 318.798 246.118 319.041C246.004 319.409 245.852 319.765 245.667 320.103C245.459 320.492 245.21 320.857 244.923 321.192C244.637 321.535 244.296 321.826 243.913 322.056C243.6 322.261 243.224 322.351 242.851 322.308C242.524 322.23 242.239 322.03 242.054 321.75C241.792 321.347 241.616 320.895 241.536 320.422C241.415 319.814 241.357 319.195 241.363 318.576ZM243.913 314.338C243.709 314.448 243.532 314.603 243.395 314.79C243.248 314.976 243.127 315.182 243.037 315.401C242.944 315.62 242.868 315.847 242.811 316.078C242.764 316.288 242.733 316.502 242.718 316.716L245.056 315.388C245.042 315.205 245.016 315.023 244.976 314.843C244.956 314.683 244.891 314.531 244.79 314.405C244.75 314.347 244.699 314.299 244.64 314.262C244.58 314.226 244.514 314.202 244.445 314.192C244.256 314.176 244.068 314.228 243.913 314.338Z" fill="#FAFAFA"/>
<path d="M250.635 310.632C250.232 310.862 249.915 311.216 249.731 311.642C249.525 312.203 249.43 312.798 249.452 313.395V318.19C249.454 318.327 249.427 318.463 249.373 318.589C249.34 318.698 249.269 318.793 249.173 318.855L248.39 319.306C248.377 319.32 248.362 319.332 248.345 319.339C248.328 319.347 248.309 319.351 248.29 319.351C248.271 319.351 248.253 319.347 248.235 319.339C248.218 319.332 248.203 319.32 248.19 319.306C248.131 319.216 248.103 319.109 248.111 319.001V310.407C248.111 310.27 248.139 310.135 248.19 310.008C248.228 309.901 248.297 309.808 248.39 309.743L249.173 309.291C249.2 309.266 249.236 309.252 249.273 309.252C249.31 309.252 249.346 309.266 249.373 309.291C249.434 309.375 249.463 309.479 249.452 309.583V310.008C249.611 309.652 249.807 309.313 250.037 308.999C250.247 308.708 250.519 308.467 250.834 308.295L251.312 308.016C251.337 307.991 251.37 307.978 251.405 307.978C251.44 307.978 251.473 307.991 251.498 308.016C251.562 308.104 251.595 308.212 251.591 308.321V309.53C251.589 309.668 251.557 309.804 251.498 309.928C251.464 310.034 251.399 310.127 251.312 310.194L250.635 310.632Z" fill="#FAFAFA"/>
<path d="M260.544 309.995C260.556 309.981 260.571 309.969 260.589 309.962C260.606 309.954 260.624 309.95 260.643 309.95C260.662 309.95 260.681 309.954 260.698 309.962C260.715 309.969 260.73 309.981 260.743 309.995C260.802 310.085 260.83 310.193 260.822 310.3V311.629C260.822 311.765 260.795 311.901 260.743 312.027C260.697 312.126 260.629 312.212 260.544 312.28L256.001 314.936C255.974 314.961 255.938 314.975 255.901 314.975C255.864 314.975 255.829 314.961 255.802 314.936C255.742 314.851 255.714 314.748 255.722 314.644V302.689C255.723 302.553 255.75 302.417 255.802 302.291C255.839 302.187 255.909 302.099 256.001 302.039L256.838 301.547C256.865 301.522 256.9 301.508 256.937 301.508C256.974 301.508 257.01 301.522 257.037 301.547C257.096 301.632 257.124 301.736 257.117 301.839V311.948L260.544 309.995Z" fill="#FAFAFA"/>
<path d="M264.621 300.166C264.921 299.959 265.281 299.86 265.644 299.887C265.955 299.911 266.245 300.054 266.454 300.285C266.702 300.569 266.883 300.905 266.986 301.268C267.128 301.738 267.208 302.225 267.225 302.716C267.225 302.822 267.225 302.968 267.225 303.141V304.164C267.225 304.323 267.225 304.469 267.225 304.589C267.199 305.166 267.119 305.74 266.986 306.302C266.863 306.85 266.685 307.384 266.454 307.896C266.244 308.373 265.971 308.819 265.644 309.225C265.364 309.592 265.017 309.903 264.621 310.141C264.314 310.341 263.951 310.438 263.585 310.42C263.279 310.393 262.994 310.251 262.788 310.022C262.534 309.747 262.351 309.414 262.257 309.052C262.115 308.582 262.035 308.095 262.018 307.604C262.018 307.498 262.018 307.365 262.018 307.192V306.169C262.018 305.997 262.018 305.851 262.018 305.744C262.033 305.163 262.109 304.584 262.244 304.018C262.373 303.466 262.555 302.927 262.788 302.41C262.999 301.937 263.267 301.491 263.585 301.082C263.867 300.711 264.219 300.4 264.621 300.166ZM265.87 303.593C265.869 303.299 265.82 303.007 265.724 302.729C265.674 302.56 265.572 302.411 265.432 302.304C265.318 302.228 265.182 302.195 265.046 302.211C264.895 302.24 264.75 302.298 264.621 302.384C264.465 302.469 264.322 302.577 264.196 302.703C264.044 302.861 263.914 303.04 263.811 303.234C263.678 303.476 263.579 303.735 263.519 304.004C263.432 304.344 263.378 304.691 263.36 305.04C263.36 305.147 263.36 305.266 263.36 305.412V306.355C263.36 306.502 263.36 306.621 263.36 306.701C263.372 306.995 263.426 307.285 263.519 307.564C263.567 307.734 263.67 307.883 263.811 307.989C263.866 308.028 263.929 308.056 263.995 308.069C264.062 308.083 264.13 308.083 264.196 308.069C264.347 308.043 264.491 307.989 264.621 307.91C264.775 307.821 264.918 307.714 265.046 307.591C265.195 307.429 265.324 307.251 265.432 307.059C265.559 306.815 265.658 306.557 265.724 306.289C265.811 305.95 265.86 305.603 265.87 305.253C265.878 305.129 265.878 305.005 265.87 304.881V303.951C265.878 303.832 265.878 303.712 265.87 303.593Z" fill="#FAFAFA"/>
<path d="M271.289 307.936C271.459 307.832 271.612 307.702 271.741 307.551C271.901 307.363 272.039 307.158 272.153 306.94C272.285 306.673 272.387 306.392 272.458 306.103C272.54 305.777 272.58 305.443 272.578 305.107V304.429C272.578 304.562 272.445 304.722 272.352 304.908C272.261 305.102 272.154 305.288 272.033 305.466C271.894 305.652 271.744 305.83 271.582 305.997C271.415 306.172 271.222 306.319 271.01 306.435C270.874 306.528 270.72 306.593 270.558 306.625C270.396 306.657 270.229 306.655 270.067 306.621C269.772 306.529 269.518 306.336 269.35 306.077C269.134 305.733 268.976 305.356 268.885 304.961C268.772 304.459 268.71 303.947 268.699 303.433C268.699 303.261 268.699 303.048 268.699 302.796C268.699 302.543 268.699 302.331 268.699 302.145C268.716 301.561 268.778 300.979 268.885 300.405C268.994 299.839 269.15 299.284 269.35 298.744C269.538 298.276 269.779 297.83 270.067 297.416C270.312 297.05 270.634 296.742 271.01 296.513C271.187 296.407 271.38 296.33 271.582 296.287C271.731 296.259 271.884 296.259 272.033 296.287C272.151 296.32 272.26 296.379 272.352 296.46C272.437 296.525 272.513 296.601 272.578 296.686V296.26C272.578 296.124 272.606 295.988 272.658 295.862C272.695 295.758 272.765 295.67 272.857 295.61L273.64 295.145C273.667 295.119 273.703 295.105 273.74 295.105C273.777 295.105 273.813 295.119 273.84 295.145C273.904 295.233 273.937 295.341 273.933 295.45V304.084C273.968 305.377 273.728 306.663 273.229 307.856C272.837 308.795 272.158 309.585 271.289 310.115C270.993 310.298 270.655 310.404 270.306 310.42C270.031 310.437 269.757 310.367 269.523 310.221C269.298 310.053 269.116 309.834 268.991 309.583C268.862 309.28 268.79 308.956 268.779 308.627C268.767 308.489 268.794 308.351 268.859 308.228C268.891 308.119 268.962 308.025 269.058 307.963L269.762 307.564C269.778 307.547 269.798 307.533 269.819 307.524C269.841 307.514 269.864 307.509 269.888 307.509C269.912 307.509 269.935 307.514 269.957 307.524C269.979 307.533 269.998 307.547 270.014 307.564C270.08 307.633 270.138 307.709 270.187 307.79C270.268 307.932 270.401 308.037 270.559 308.082C270.718 308.202 270.957 308.069 271.289 307.936ZM270.041 301.494C270.041 301.848 270.041 302.193 270.041 302.53C270.003 303.06 270.153 303.587 270.466 304.018C270.584 304.12 270.735 304.176 270.891 304.176C271.047 304.176 271.198 304.12 271.316 304.018C271.701 303.767 272.002 303.406 272.179 302.982C272.421 302.427 272.556 301.833 272.578 301.228C272.578 301.029 272.578 300.79 272.578 300.511C272.578 300.232 272.578 299.993 272.578 299.82C272.605 299.344 272.464 298.874 272.179 298.492C272.062 298.384 271.908 298.324 271.748 298.324C271.588 298.324 271.434 298.384 271.316 298.492C270.938 298.742 270.642 299.097 270.466 299.515C270.193 300.139 270.048 300.812 270.041 301.494Z" fill="#FAFAFA"/>
<path d="M277.028 289.699C277.054 289.677 277.087 289.665 277.121 289.665C277.155 289.665 277.187 289.677 277.214 289.699C277.283 289.785 277.317 289.894 277.307 290.004V291.452C277.307 291.59 277.276 291.727 277.214 291.851C277.176 291.95 277.112 292.038 277.028 292.103L276.138 292.621C276.125 292.635 276.11 292.646 276.093 292.654C276.076 292.662 276.057 292.666 276.038 292.666C276.019 292.666 276.001 292.662 275.983 292.654C275.966 292.646 275.951 292.635 275.938 292.621C275.904 292.581 275.878 292.535 275.862 292.484C275.846 292.434 275.84 292.381 275.845 292.329V290.881C275.845 290.743 275.876 290.606 275.938 290.482C275.976 290.379 276.046 290.29 276.138 290.23L277.028 289.699ZM277.253 302.171C277.254 302.304 277.227 302.435 277.174 302.557C277.131 302.661 277.063 302.752 276.975 302.822L276.178 303.274C276.166 303.288 276.152 303.299 276.136 303.307C276.12 303.314 276.102 303.318 276.085 303.318C276.067 303.318 276.049 303.314 276.033 303.307C276.017 303.299 276.003 303.288 275.992 303.274C275.922 303.188 275.889 303.078 275.899 302.968V294.374C275.898 294.236 275.93 294.099 275.992 293.976C276.029 293.872 276.093 293.781 276.178 293.71L276.975 293.259C277.002 293.233 277.037 293.219 277.074 293.219C277.111 293.219 277.147 293.233 277.174 293.259C277.233 293.344 277.261 293.447 277.253 293.551V302.171Z" fill="#FAFAFA"/>
<path d="M284.24 298.12C284.24 298.257 284.212 298.392 284.16 298.519C284.123 298.622 284.053 298.711 283.961 298.771L283.164 299.236C283.139 299.26 283.106 299.274 283.071 299.274C283.037 299.274 283.003 299.26 282.978 299.236C282.909 299.15 282.875 299.04 282.885 298.93V294.255C282.926 293.703 282.826 293.15 282.593 292.648C282.407 292.315 282.115 292.262 281.703 292.501C281.292 292.777 280.988 293.185 280.84 293.657C280.618 294.284 280.51 294.945 280.521 295.61V300.298C280.52 300.435 280.493 300.57 280.441 300.697C280.409 300.806 280.338 300.901 280.242 300.963L279.458 301.414C279.446 301.428 279.431 301.44 279.413 301.447C279.396 301.455 279.378 301.459 279.359 301.459C279.34 301.459 279.321 301.455 279.304 301.447C279.287 301.44 279.272 301.428 279.259 301.414C279.198 301.33 279.169 301.226 279.179 301.122V292.528C279.178 292.391 279.205 292.255 279.259 292.129C279.292 292.02 279.362 291.926 279.458 291.864L280.242 291.412C280.255 291.398 280.27 291.387 280.287 291.379C280.304 291.371 280.323 291.367 280.342 291.367C280.361 291.367 280.379 291.371 280.396 291.379C280.414 291.387 280.429 291.398 280.441 291.412C280.501 291.503 280.529 291.61 280.521 291.718V292.129C280.696 291.725 280.909 291.338 281.159 290.974C281.377 290.638 281.673 290.361 282.022 290.164C282.324 289.943 282.7 289.848 283.071 289.898C283.218 289.935 283.356 290.003 283.475 290.096C283.594 290.19 283.692 290.308 283.762 290.443C283.955 290.802 284.081 291.194 284.134 291.598C284.205 292.127 284.24 292.659 284.24 293.192V298.12Z" fill="#FAFAFA"/>
<path d="M351.239 259.454L338.341 266.892L340.347 248.801C338.793 247.977 337.81 245.971 337.81 243.089C337.81 237.949 340.945 231.985 344.797 229.806C348.649 227.628 351.77 229.939 351.77 235.119C351.691 238.167 350.821 241.142 349.247 243.753L351.239 259.454Z" fill="#455A64"/>
<path d="M351.252 259.454L339.896 252.905L338.341 266.905L351.252 259.454Z" fill="#37474F"/>
<path d="M344.77 229.766C341.961 231.664 339.867 234.446 338.82 237.67L349.22 243.673C350.794 241.062 351.664 238.087 351.744 235.04C351.77 229.899 348.649 227.548 344.77 229.766Z" fill="#37474F"/>
<path d="M282.075 169.528C277.652 166.978 271.555 167.337 264.807 171.229C251.339 179.012 240.42 197.914 240.42 213.468C240.42 221.279 243.183 226.751 247.619 229.275L256.213 234.269C260.623 236.82 266.72 236.448 273.481 232.556C286.95 224.785 297.868 205.87 297.868 190.316C297.868 182.546 295.132 177.033 290.722 174.549" fill="#407BFF"/>
<path d="M273.468 176.236C259.999 184.02 249.08 202.935 249.08 218.476C249.08 234.017 259.999 240.339 273.468 232.556C286.937 224.772 297.868 205.87 297.855 190.316C297.842 174.762 286.923 168.466 273.468 176.236Z" fill="#407BFF"/>
<path d="M286.923 210.745V212.525C283.697 218.285 279.069 223.137 273.468 226.632C268.221 229.647 263.479 229.979 259.999 228.053V224.387C260.177 220.573 261.266 216.857 263.175 213.55C265.084 210.243 267.757 207.441 270.971 205.379L274.517 203.333C277.652 201.527 280.707 201.288 283.098 202.683C285.489 204.077 286.923 207.013 286.923 210.745Z" fill="#407BFF"/>
<path opacity="0.4" d="M282.075 169.528L290.709 174.549C286.299 171.986 280.202 172.344 273.441 176.236C264.621 181.337 256.891 191.206 252.614 201.779L243.967 196.772C248.257 186.145 255.921 176.329 264.794 171.229C271.568 167.35 277.665 166.978 282.075 169.528Z" fill="white"/>
<path opacity="0.2" d="M255.908 234.07L247.633 229.275C243.196 226.751 240.433 221.305 240.433 213.468L249.081 218.489C249.134 226.06 251.684 231.453 255.908 234.07Z" fill="black"/>
<path opacity="0.1" d="M243.993 196.772L252.64 201.779C250.425 207.073 249.235 212.739 249.134 218.476L240.486 213.455C240.593 207.723 241.783 202.062 243.993 196.772Z" fill="black"/>
<path d="M270.386 202.497C269.562 202.505 268.751 202.295 268.035 201.886C267.173 201.311 266.482 200.513 266.035 199.578C265.589 198.643 265.403 197.604 265.498 196.572C265.611 194.152 266.302 191.794 267.512 189.696C268.723 187.598 270.419 185.82 272.458 184.512C273.277 183.858 274.275 183.466 275.32 183.388C276.365 183.31 277.409 183.55 278.316 184.075C279.223 184.6 279.951 185.387 280.403 186.332C280.856 187.277 281.013 188.337 280.853 189.373C280.738 191.793 280.047 194.15 278.836 196.248C277.625 198.346 275.93 200.124 273.893 201.434C272.839 202.092 271.629 202.459 270.386 202.497Z" fill="white"/>
<path d="M283.098 202.669C280.707 201.275 277.652 201.514 274.517 203.32L270.971 205.366C267.755 207.429 265.081 210.233 263.172 213.542C261.263 216.852 260.175 220.57 259.999 224.387V228.066C263.479 229.992 268.221 229.66 273.468 226.645C279.069 223.15 283.697 218.298 286.923 212.538V210.759C286.923 207.013 285.542 204.077 283.098 202.669Z" fill="white"/>
<path d="M556.167 432.463C556.167 432.463 557.934 416.949 565.651 404.901C573.369 392.853 583.968 385.349 593.864 384.565C603.76 383.781 611.756 392.893 601.17 399.176C590.583 405.459 571.775 411.808 563.114 435.186L556.167 432.463Z" fill="#407BFF"/>
<path opacity="0.1" d="M556.167 432.463C556.167 432.463 557.934 416.949 565.651 404.901C573.369 392.853 583.968 385.349 593.864 384.565C603.76 383.781 611.756 392.893 601.17 399.176C590.583 405.459 571.775 411.808 563.114 435.186L556.167 432.463Z" fill="black"/>
<path d="M559.076 428.425H558.97C558.84 428.372 558.736 428.269 558.681 428.14C558.626 428.011 558.625 427.865 558.678 427.734C569.118 402.032 588.989 391.286 598.048 389.214C598.116 389.198 598.187 389.196 598.255 389.208C598.324 389.219 598.39 389.244 598.449 389.281C598.509 389.318 598.56 389.366 598.601 389.423C598.641 389.48 598.67 389.544 598.686 389.612C598.701 389.68 598.704 389.751 598.692 389.82C598.681 389.889 598.656 389.955 598.619 390.014C598.582 390.073 598.533 390.124 598.476 390.165C598.42 390.205 598.355 390.234 598.287 390.25C589.414 392.296 569.928 402.842 559.661 428.146C559.609 428.252 559.524 428.337 559.417 428.388C559.311 428.439 559.191 428.452 559.076 428.425Z" fill="white"/>
<path d="M611.915 428.731C611.025 430.75 608.821 431.812 606.775 432.636C604.729 433.459 602.498 434.349 601.382 436.262C599.151 440.114 602.817 445.56 600.426 449.292C599.863 450.044 599.154 450.674 598.341 451.144C597.528 451.614 596.629 451.915 595.697 452.029C594.17 452.308 592.615 452.308 591.075 452.44C590.337 452.431 589.6 452.373 588.87 452.268C586.723 451.789 584.479 452.027 582.481 452.945C579.412 454.672 578.496 458.537 576.61 461.526C575.457 463.286 573.939 464.776 572.157 465.894C570.376 467.013 568.374 467.734 566.289 468.008C564.96 468.181 562.304 468.433 560.976 467.649C560.872 467.598 560.774 467.536 560.683 467.463C560.484 467.251 560.245 466.972 560.139 466.826C560.132 466.795 560.132 466.763 560.139 466.733C559.594 464.727 560.484 462.655 560.524 460.583V460.211C560.431 457.807 560.365 455.416 560.311 453.025C560.196 448.597 560.152 444.17 560.179 439.742C560.179 436.873 559.86 433.738 561.082 431.042C562.41 428.066 565.757 428 567.019 425.091C567.524 423.922 567.79 422.687 568.281 421.505C569.041 419.786 570.257 418.309 571.798 417.234C573.34 416.159 575.146 415.527 577.021 415.408C582.853 415.116 588.073 419.831 593.904 419.393C595.405 419.273 596.879 418.808 598.367 418.543C603.082 417.653 608.542 418.994 611.198 422.992C611.781 423.816 612.152 424.77 612.277 425.771C612.402 426.773 612.278 427.789 611.915 428.731Z" fill="#407BFF"/>
<path d="M559.554 457.528C559.429 457.491 559.323 457.406 559.258 457.292C559.194 457.178 559.176 457.044 559.209 456.917C567.258 426.712 599.058 422.381 606.536 422.886C606.602 422.889 606.666 422.906 606.725 422.935C606.785 422.963 606.837 423.004 606.881 423.053C606.924 423.103 606.957 423.161 606.978 423.223C606.998 423.286 607.006 423.352 607.001 423.417C606.987 423.547 606.925 423.666 606.826 423.75C606.727 423.834 606.599 423.877 606.469 423.869C599.177 423.351 568.042 427.615 560.165 457.182C560.128 457.308 560.044 457.414 559.93 457.479C559.816 457.543 559.681 457.561 559.554 457.528Z" fill="white"/>
<path d="M594.927 442.226C594.826 442.212 594.733 442.165 594.661 442.093C591.721 439.545 588.255 437.678 584.51 436.624C580.765 435.57 576.834 435.356 572.997 435.996C572.867 436.008 572.738 435.971 572.635 435.892C572.531 435.814 572.461 435.699 572.439 435.571C572.419 435.441 572.452 435.309 572.529 435.202C572.605 435.095 572.721 435.023 572.85 435C576.853 434.334 580.952 434.561 584.856 435.666C588.76 436.77 592.372 438.725 595.431 441.389C595.478 441.435 595.516 441.49 595.541 441.55C595.567 441.611 595.58 441.675 595.58 441.741C595.58 441.807 595.567 441.872 595.541 441.932C595.516 441.993 595.478 442.047 595.431 442.093C595.371 442.165 595.291 442.216 595.2 442.24C595.11 442.264 595.014 442.259 594.927 442.226Z" fill="white"/>
<path d="M483.072 67.6489L487.296 69.2694V59.9714C487.296 52.5861 493.18 50.8195 499.569 54.5121C505.971 58.2048 511.152 67.1707 511.152 74.556V75.8843C512.042 75.6122 512.982 75.545 513.903 75.6876C514.823 75.8302 515.699 76.1789 516.465 76.7078C518.891 78.2897 520.91 80.4217 522.357 82.9305C523.804 85.4393 524.639 88.2542 524.793 91.1463V91.7573L530.691 95.1577C532.286 96.1992 533.614 97.6016 534.567 99.2515C535.52 100.901 536.072 102.752 536.177 104.655C536.177 108.162 533.719 109.583 530.691 107.83L483.072 80.3207C481.475 79.2817 480.147 77.8795 479.196 76.2289C478.244 74.5783 477.697 72.726 477.599 70.8235C477.599 67.3301 480.03 65.9088 483.072 67.6489Z" fill="#E6E6E6"/>
<path d="M539.643 60.2902L547.308 64.7134C547.266 64.3785 547.243 64.0414 547.241 63.7039V61.4856C547.241 57.5008 550.004 55.9334 553.431 57.9125C554.904 58.8142 556.163 60.0241 557.124 61.4591C557.682 56.4913 561.587 54.645 566.315 57.368C569.018 59.1262 571.268 61.4964 572.883 64.2865C574.499 67.0766 575.434 70.208 575.613 73.4269V76.7477C575.648 78.0745 575.38 79.3917 574.83 80.5997L581.206 84.2658C582.199 84.9248 583.024 85.8076 583.615 86.8434C584.206 87.8792 584.545 89.039 584.606 90.2298C584.606 92.4215 583.065 93.3114 581.166 92.2222L539.643 68.313C538.639 67.6587 537.804 66.7761 537.206 65.7372C536.608 64.6984 536.264 63.5328 536.203 62.3357C536.203 60.0909 537.744 59.201 539.643 60.2902Z" fill="#E6E6E6"/>
<path d="M509.97 261.884C504.391 271.315 499.024 279.511 495.252 283.442C488.093 286.763 471.277 291.89 464.701 292.741C463.547 292.888 462.377 292.614 461.407 291.97C458.817 290.27 456.811 289.991 454.088 289.048C451.95 288.317 451.047 287.295 450.648 287.72C450.237 288.202 450.03 288.826 450.072 289.459C450.114 290.092 450.402 290.683 450.874 291.107C451.896 292.077 453.028 292.925 454.248 293.63C451.331 294.354 448.289 294.409 445.348 293.79C439.65 292.289 436.967 295.025 440.819 301.215C442.147 303.42 447.62 306.966 458.618 306.01C462.541 305.799 466.449 305.355 470.32 304.682C480.867 302.424 492.596 300.245 499.808 298.04C502.491 296.985 504.892 295.321 506.821 293.179C518.949 279.351 522.973 269.495 528.287 260.543L527.835 245.932C519.228 245.639 514.632 253.994 509.97 261.884Z" fill="#FFA8A7"/>
<path d="M529.309 245.639C526.813 245.289 524.269 245.627 521.951 246.617C519.634 247.607 517.631 249.212 516.159 251.258C510.262 258.816 499.821 276.96 499.821 276.96C499.821 276.96 503.235 286.059 512.453 287.587L527.264 267.583C527.264 267.583 534.277 253.689 529.309 245.639Z" fill="#455A64"/>
<path d="M561.334 449.585H551.678V466.799H561.334V449.585Z" fill="#FFA8A7"/>
<path d="M527.862 448.668L518.218 449.014L517.727 430.789L527.862 430.444V448.668Z" fill="#FFA8A7"/>
<path d="M562.689 300.564C562.689 310.154 561.281 387.421 561.281 387.421C561.494 390.184 563.938 395.284 563.446 405.897C562.716 420.309 561.746 458.192 561.746 458.192C560.088 459.04 558.259 459.5 556.398 459.537C554.536 459.574 552.69 459.187 551 458.404C551 458.404 543.163 405.273 541.437 391.047C539.922 378.574 536.044 337.291 536.044 337.291L530.824 386.092C531.93 391.329 532.332 396.689 532.019 402.032C531.567 408.673 528.459 443.049 528.459 443.049C526.791 444.034 524.921 444.625 522.99 444.779C521.059 444.934 519.118 444.646 517.315 443.939C517.315 443.939 511.816 392.136 511.71 386.053C511.577 379.146 514.924 300.484 514.924 300.484L562.689 300.564Z" fill="#37474F"/>
<path d="M551.678 461.831V460.397C550.748 460.809 548.609 469.336 544.771 472.976C541.729 475.871 537.585 479.205 536.522 482.433C535.459 485.661 542.3 487.64 545.156 487.122C548.45 486.511 554.188 484.08 555.623 481.809C557.057 479.538 557.735 476.243 558.904 474.596C560.073 472.949 562.769 471.116 563.393 469.203C563.588 467.414 563.402 465.603 562.849 463.89C562.397 462.11 561.919 460.158 561.334 460.331V461.42C559.973 462.537 558.261 463.139 556.499 463.12C555.091 463.239 551.664 462.947 551.678 461.831Z" fill="#263238"/>
<path d="M518.112 445.905C517.607 445.905 517.195 446.662 516.093 447.911C514.454 449.635 512.536 451.072 510.421 452.161C506.808 454.048 499.795 456.943 496.594 458.444C494.601 459.374 494.694 461.871 496.753 463.292C498.812 464.714 503.766 465.737 509.717 464.355C512.958 463.598 517.182 460.477 519.865 460.649C522.548 460.822 527.529 460.769 529.509 459.321C531.488 457.873 530.691 454.871 530.133 452.281C529.522 449.438 528.805 445.015 527.861 445.215V446.211C526.706 448.044 520.715 448.788 518.165 447.446L518.112 445.905Z" fill="#263238"/>
<path d="M536.044 337.291C531.02 335.647 526.428 332.901 522.601 329.255C522.601 329.255 525.258 334.316 532.909 339.031L531.262 382.612L536.044 337.291Z" fill="#263238"/>
<path d="M557.296 247.047C557.296 247.047 565.266 248.88 564.695 263.279L563.035 286.192V320.595C555.942 328.644 524.514 328.06 513.689 319.957C513.689 319.957 514.911 279.245 515.641 263.571C516.159 252.44 518.723 246.835 529.668 245.613L543.124 246.197L557.296 247.047Z" fill="#407BFF"/>
<path d="M547.148 217.134C547.194 219.062 546.858 220.98 546.159 222.777C545.46 224.574 544.413 226.215 543.077 227.605C541.741 228.996 540.143 230.108 538.375 230.878C536.607 231.648 534.704 232.06 532.776 232.091C524.806 232.091 520.131 225.21 518.404 217.134C515.216 202.35 524.833 202.165 532.776 202.165C536.667 202.245 540.366 203.867 543.061 206.674C545.757 209.481 547.227 213.244 547.148 217.134Z" fill="#263238"/>
<path d="M554.48 223.178C554.48 223.178 552.275 233.964 551.385 235.744C550.826 236.815 549.874 237.629 548.729 238.015L548.888 230.43L554.48 223.178Z" fill="#263238"/>
<path d="M551.704 207.73C551.704 207.73 553.285 207.332 554.972 209.962C556.406 212.206 556.738 217.254 554.48 223.244L550.323 223.749L551.704 207.73Z" fill="#263238"/>
<path d="M553.232 209.922L558.332 210.015C558.367 209.685 558.334 209.352 558.234 209.036C558.134 208.72 557.969 208.428 557.751 208.178C557.533 207.929 557.265 207.727 556.965 207.586C556.665 207.445 556.339 207.367 556.008 207.358C555.311 207.368 554.642 207.635 554.129 208.109C553.617 208.582 553.297 209.227 553.232 209.922Z" fill="#263238"/>
<path d="M553.856 208.713L557.628 205.087C557.411 204.831 557.143 204.622 556.841 204.475C556.539 204.327 556.21 204.244 555.874 204.23C555.538 204.217 555.203 204.273 554.89 204.395C554.577 204.517 554.293 204.703 554.055 204.941C553.555 205.43 553.257 206.089 553.22 206.788C553.183 207.487 553.41 208.174 553.856 208.713Z" fill="#263238"/>
<path d="M549.074 223.683C549.911 224.201 551.093 222.54 552.129 221.411C553.165 220.282 556.38 219.246 558.053 222.912C559.727 226.578 556.871 230.205 554.48 231.4C550.19 233.525 548.835 230.43 548.835 230.43L548.476 247.512C542.446 256.81 528.765 256.518 533.693 247.061V241.867C531.666 242.204 529.607 242.311 527.556 242.186C524.209 241.654 522.11 238.905 521.087 235.133C519.467 229.076 518.842 224.188 520.224 212.273C521.738 199.229 536.323 199.083 544.133 204.303C551.943 209.523 549.074 223.683 549.074 223.683Z" fill="#FFA8A7"/>
<path d="M530.903 210.24C534.383 209.895 537.824 209.178 541.317 208.912C542.07 208.821 542.834 208.857 543.575 209.018C546.232 209.749 545.913 212.857 546.338 215.022C547.069 218.768 547.666 225.104 549.074 225.131C549.499 225.131 551.093 222.381 552.129 221.398C552.699 220.551 553.021 219.562 553.059 218.542C553.325 217.001 553.458 215.421 553.577 213.853C553.683 212.525 553.816 211.197 553.816 209.869C553.877 208.367 553.756 206.864 553.458 205.392C553.125 204.14 552.486 202.989 551.598 202.045L551.332 201.753C549.581 199.922 547.457 198.491 545.103 197.555C541.716 196.286 538.164 195.513 534.556 195.257C530.953 195.002 527.367 194.559 523.81 193.929C523.606 193.87 523.39 193.87 523.186 193.929C523.042 194.009 522.92 194.124 522.832 194.263C522.743 194.402 522.692 194.562 522.681 194.726C522.535 195.551 522.627 196.401 522.944 197.177C523.261 197.953 523.792 198.623 524.474 199.109C522.07 199.295 519.307 198.047 516.996 197.409C516.809 197.33 516.608 197.289 516.405 197.289C516.202 197.289 516.001 197.33 515.814 197.409C515.582 197.571 515.417 197.812 515.349 198.087C515.181 198.711 515.158 199.365 515.283 199.999C515.494 201.922 516.209 203.754 517.355 205.312C519.145 207.643 521.674 209.297 524.527 210.001C526.628 210.406 528.778 210.487 530.903 210.24Z" fill="#263238"/>
<path d="M533.706 241.867C533.706 241.867 541.171 240.3 543.774 238.852C545.325 238.003 546.584 236.707 547.387 235.133C546.995 236.715 546.296 238.204 545.328 239.516C543.429 242.066 533.706 243.926 533.706 243.926V241.867Z" fill="#F28F8F"/>
<path d="M535.499 221.73C535.485 222.14 535.633 222.539 535.912 222.84C536.19 223.141 536.577 223.32 536.987 223.337C537.312 223.364 537.638 223.292 537.922 223.13C538.206 222.969 538.434 222.725 538.577 222.432C538.72 222.138 538.77 221.808 538.723 221.485C538.675 221.162 538.531 220.861 538.309 220.622C538.087 220.382 537.798 220.215 537.48 220.142C537.161 220.07 536.829 220.095 536.525 220.215C536.221 220.335 535.961 220.544 535.778 220.814C535.595 221.084 535.498 221.404 535.499 221.73Z" fill="#263238"/>
<path d="M537.89 215.288L541.091 217.134C541.324 216.679 541.377 216.153 541.239 215.66C541.101 215.168 540.783 214.746 540.347 214.478C540.135 214.359 539.9 214.285 539.658 214.262C539.416 214.238 539.171 214.265 538.94 214.342C538.709 214.418 538.496 214.541 538.316 214.704C538.135 214.867 537.99 215.066 537.89 215.288Z" fill="#263238"/>
<path d="M534.37 232.503L530.956 233.831C531.025 234.065 531.141 234.283 531.297 234.47C531.454 234.657 531.647 234.811 531.865 234.92C532.083 235.03 532.321 235.093 532.565 235.107C532.808 235.121 533.052 235.084 533.281 235C533.746 234.8 534.117 234.43 534.319 233.966C534.521 233.503 534.54 232.979 534.37 232.503Z" fill="#F28F8F"/>
<path d="M521.765 216.656L524.687 214.318C524.556 214.114 524.383 213.94 524.181 213.807C523.978 213.674 523.749 213.585 523.51 213.546C523.271 213.508 523.026 213.519 522.792 213.582C522.557 213.644 522.339 213.754 522.15 213.906C521.759 214.238 521.504 214.701 521.433 215.208C521.362 215.715 521.48 216.23 521.765 216.656Z" fill="#263238"/>
<path d="M523.053 221.292C523.076 221.582 523.184 221.86 523.362 222.091C523.54 222.321 523.782 222.495 524.058 222.59C524.333 222.686 524.63 222.699 524.913 222.628C525.196 222.558 525.452 222.406 525.65 222.192C525.849 221.978 525.98 221.711 526.029 221.424C526.078 221.136 526.042 220.841 525.926 220.574C525.809 220.306 525.618 220.078 525.374 219.918C525.131 219.758 524.846 219.672 524.554 219.671C524.349 219.678 524.147 219.726 523.96 219.811C523.773 219.896 523.605 220.018 523.466 220.168C523.326 220.319 523.218 220.496 523.147 220.689C523.076 220.882 523.044 221.087 523.053 221.292Z" fill="#263238"/>
<path d="M531.063 220.043L530.89 229.487L525.524 228.265L531.063 220.043Z" fill="#F28F8F"/>
<path d="M403.627 299.143L411.955 294.334L415.249 290.336L406.934 295.145L403.627 299.143Z" fill="#407BFF"/>
<path opacity="0.4" d="M403.627 299.143L411.955 294.334L415.249 290.336L406.934 295.145L403.627 299.143Z" fill="black"/>
<path d="M426.274 312.213L434.602 307.405L441.549 301.255L433.234 306.05L426.274 312.213Z" fill="#407BFF"/>
<path opacity="0.4" d="M426.274 312.213L434.602 307.405L441.549 301.255L433.234 306.05L426.274 312.213Z" fill="black"/>
<path d="M497.019 328.804C498.988 331.443 500.18 334.581 500.459 337.862C498.498 335.218 497.308 332.083 497.019 328.804ZM516.372 329.056C513.569 309.995 503.328 291.147 491.134 284.093C485.277 280.706 479.857 280.587 475.514 283.124L467.677 287.64L467.238 287.906C466.889 288.098 466.552 288.311 466.229 288.543C465.585 288.986 464.981 289.484 464.422 290.031L464.157 290.283C463.918 290.522 463.665 290.801 463.439 291.067C463.214 291.333 462.868 291.744 462.603 292.103C462.039 292.845 461.528 293.626 461.075 294.441C460.836 294.853 460.61 295.291 460.398 295.769L391.951 256.266L383.636 261.061V266.374L384.34 266.773L385.004 267.158V268.22L383.676 269.004V272.086L393.731 293.338L403.667 299.09L406.974 295.105L415.741 300.352L420.775 308.972L426.327 312.173L433.274 306.01L441.802 310.938L444.671 322.773L459.003 331.062C459.711 334.074 460.598 337.041 461.66 339.948C461.753 340.24 461.872 340.546 461.992 340.878C466.747 353.364 474.305 364.056 482.832 368.984C483.854 369.59 484.925 370.11 486.034 370.538C486.62 370.771 487.218 370.971 487.827 371.136C488.358 371.278 488.889 371.397 489.421 371.495C491.098 371.8 492.817 371.8 494.495 371.495L495.186 371.322C495.516 371.255 495.84 371.162 496.155 371.043L496.899 370.751C497.162 370.656 497.416 370.536 497.656 370.392C497.902 370.286 498.141 370.166 498.373 370.034L498.719 369.821C498.781 369.8 498.84 369.769 498.891 369.728C500.791 368.639 505.467 365.929 506.742 365.212C513.064 361.546 517.155 352.274 517.155 339.164C517.145 335.78 516.883 332.401 516.372 329.056Z" fill="#407BFF"/>
<path d="M494.588 344.889C491.294 342.99 488.637 337.358 488.637 332.31C488.637 327.263 491.294 324.699 494.588 326.585C497.882 328.471 500.525 334.117 500.525 339.177C500.525 344.238 497.869 346.788 494.588 344.889ZM508.044 333.851C505.254 314.803 495.013 295.942 482.806 288.902C477.148 285.634 471.914 285.395 467.664 287.64L467.225 287.905C466.876 288.098 466.539 288.31 466.216 288.543C465.572 288.986 464.968 289.484 464.409 290.031L464.144 290.283C463.904 290.522 463.652 290.801 463.426 291.067C463.2 291.332 462.855 291.744 462.59 292.103C462.026 292.845 461.515 293.626 461.062 294.441C460.823 294.852 460.597 295.291 460.385 295.769C459.146 298.336 458.253 301.056 457.728 303.858L383.623 261.061V266.374L384.327 266.772L384.991 267.158V268.22L383.663 269.004V272.086L393.718 293.338L403.653 299.09L406.961 295.105L415.728 300.352L420.762 308.972L426.314 312.173L433.261 306.01L441.789 310.938L444.658 322.773L459.003 331.062C459.711 334.074 460.599 337.041 461.66 339.948C461.753 340.24 461.872 340.546 461.992 340.878C466.747 353.364 474.305 364.056 482.833 368.984C483.855 369.59 484.925 370.11 486.034 370.538C486.62 370.771 487.218 370.971 487.827 371.136C488.358 371.278 488.89 371.397 489.421 371.495C491.098 371.8 492.817 371.8 494.495 371.495L495.186 371.322C495.516 371.255 495.84 371.162 496.155 371.043L496.899 370.751C497.162 370.656 497.416 370.536 497.656 370.392C497.902 370.286 498.141 370.166 498.374 370.033L498.719 369.821C498.782 369.8 498.84 369.769 498.892 369.728C504.949 365.903 508.84 356.764 508.84 343.972C508.818 340.584 508.552 337.201 508.044 333.851Z" fill="#407BFF"/>
<path opacity="0.4" d="M500.525 339.164C500.525 344.225 497.869 346.788 494.588 344.889C491.307 342.99 488.637 337.371 488.637 332.31C488.637 327.249 491.294 324.686 494.588 326.585C495.537 327.163 496.362 327.921 497.019 328.817C497.304 332.097 498.495 335.233 500.459 337.876C500.508 338.303 500.53 338.734 500.525 339.164Z" fill="black"/>
<path opacity="0.4" d="M517.129 339.151C517.129 352.261 513.038 361.532 506.715 365.199C505.387 365.916 500.764 368.625 498.865 369.715C504.922 365.889 508.814 356.751 508.814 343.959C508.8 340.576 508.542 337.198 508.043 333.851C505.254 314.803 495.013 295.942 482.806 288.902C477.147 285.634 471.914 285.395 467.663 287.64L475.5 283.124C479.844 280.587 485.263 280.706 491.121 284.093C503.328 291.146 513.569 309.995 516.358 329.056C516.864 332.397 517.122 335.771 517.129 339.151Z" fill="white"/>
<path d="M508.814 343.933C508.814 356.724 504.922 365.863 498.865 369.688C500.764 368.599 505.44 365.889 506.715 365.172C513.038 361.506 517.129 352.234 517.129 339.124C517.129 338.646 517.129 338.155 517.129 337.663L508.814 342.471C508.801 342.99 508.814 343.468 508.814 343.933Z" fill="#407BFF"/>
<path opacity="0.1" d="M508.814 343.933C508.814 356.724 504.922 365.863 498.865 369.688C500.764 368.599 505.44 365.889 506.715 365.172C513.038 361.506 517.129 352.234 517.129 339.124C517.129 338.646 517.129 338.155 517.129 337.663L508.814 342.471C508.801 342.99 508.814 343.468 508.814 343.933Z" fill="black"/>
<path opacity="0.15" d="M458.047 309.291V311.987L383.636 269.031L385.004 268.234V267.118L458.047 309.291Z" fill="black"/>
<path opacity="0.15" d="M458.047 310.407V311.987L383.636 269.03L385.004 268.233V268.22L458.047 310.407Z" fill="black"/>
<path opacity="0.15" d="M490.404 365.185C487.584 365.112 484.833 364.291 482.434 362.808C470.307 355.807 460.438 334.98 460.438 316.384C460.438 305.532 463.718 297.429 469.443 294.122C473.428 291.811 478.144 292.103 483.098 294.959C495.212 301.959 505.081 322.853 505.081 341.449C505.081 352.288 501.801 360.403 496.076 363.698C494.349 364.684 492.392 365.197 490.404 365.185ZM475.195 293.923C473.425 293.913 471.683 294.371 470.147 295.251C464.927 298.266 461.806 306.169 461.806 316.371C461.806 334.542 471.369 354.891 483.138 361.639C487.641 364.295 491.905 364.534 495.451 362.489C500.671 359.474 503.793 351.584 503.793 341.382C503.793 323.198 494.229 302.862 482.474 296.101C480.277 294.764 477.766 294.031 475.195 293.976V293.923Z" fill="black"/>
<path opacity="0.4" d="M460.331 295.742C459.093 298.31 458.2 301.03 457.675 303.832L383.57 261.034L391.885 256.239L460.331 295.742Z" fill="white"/>
<path d="M556.646 299.9C560.524 292.554 564.961 276.057 567.166 267.729C570.3 255.907 565.226 248.469 559.461 248.163C555.862 248.721 544 291.85 544 291.85C542.672 292.9 524.647 302.052 518.856 304.35C517.82 304.741 516.677 304.741 515.641 304.35C512.865 303.34 510.966 303.526 508.243 303.26C506.104 303.048 505.028 302.291 504.749 302.742C504.496 303.303 504.463 303.938 504.658 304.522C504.852 305.105 505.26 305.594 505.799 305.89C506.971 306.573 508.219 307.117 509.518 307.511C507.19 308.217 504.764 308.545 502.332 308.481C496.753 308.361 494.747 310.779 499.078 316.45C501.734 319.984 506.131 321.099 515.947 317.712C518.763 316.729 522.588 314.83 526.161 313.541C533.52 310.885 535.459 310.566 541.065 308.667C549.234 305.904 554.919 303.167 556.646 299.9Z" fill="#FFA8A7"/>
<path d="M557.296 247.047C560.683 247.512 563.938 248.269 565.943 251.032C567.949 253.795 569.556 257.674 567.591 268.234C566.085 275.66 564.07 282.974 561.56 290.124C561.56 290.124 553.67 293.498 545.289 284.943L551.053 262.655C551.053 262.655 551.983 248.163 557.296 247.047Z" fill="#455A64"/>
</svg>